<?xml version="1.0" encoding="UTF-8" standalone="no"?>
<!DOCTYPE svg PUBLIC "-//W3C//DTD SVG 1.1//EN"
 "http://www.w3.org/Graphics/SVG/1.1/DTD/svg11.dtd">
<!-- Generated by graphviz version 2.40.1 (20161225.0304)
 -->
<!-- Title: dependencies Pages: 1 -->
<svg width="504pt" height="284pt"
 viewBox="0.00 0.00 504.00 284.00" xmlns="http://www.w3.org/2000/svg" xmlns:xlink="http://www.w3.org/1999/xlink">
<g id="graph0" class="graph" transform="scale(1 1) rotate(0) translate(4 280)">
<title>dependencies</title>
<polygon fill="#ffffff" stroke="transparent" points="-4,4 -4,-280 500,-280 500,4 -4,4"/>
<text text-anchor="start" x="227.0091" y="-42.4" font-family="sans-serif" font-weight="bold" font-size="14.00" fill="#000000">Legend</text>
<polygon fill="#ffffb3" stroke="transparent" points="14,-10 14,-30 34,-30 34,-10 14,-10"/>
<text text-anchor="start" x="37.629" y="-15.4" font-family="sans-serif" font-size="14.00" fill="#000000"> &#160;Declarations</text>
<polygon fill="#8dd3c7" stroke="transparent" points="127,-10 127,-30 147,-30 147,-10 127,-10"/>
<text text-anchor="start" x="150.7251" y="-15.4" font-family="sans-serif" font-size="14.00" fill="#000000"> &#160;Module</text>
<polygon fill="#80b1d3" stroke="transparent" points="213,-10 213,-30 233,-30 233,-10 213,-10"/>
<text text-anchor="start" x="236.7812" y="-15.4" font-family="sans-serif" font-size="14.00" fill="#000000"> &#160;Bootstrap</text>
<polygon fill="#fdb462" stroke="transparent" points="310,-10 310,-30 330,-30 330,-10 310,-10"/>
<text text-anchor="start" x="333.6732" y="-15.4" font-family="sans-serif" font-size="14.00" fill="#000000"> &#160;Providers</text>
<polygon fill="#fb8072" stroke="transparent" points="406,-10 406,-30 426,-30 426,-10 406,-10"/>
<text text-anchor="start" x="429.7258" y="-15.4" font-family="sans-serif" font-size="14.00" fill="#000000"> &#160;Exports</text>
<g id="clust1" class="cluster">
<title>cluster_AppModule</title>
<polygon fill="none" stroke="#000000" stroke-dasharray="1,5" points="96,-70 96,-268 236,-268 236,-70 96,-70"/>
</g>
<g id="clust2" class="cluster">
<title>cluster_AppModule_declarations</title>
<polygon fill="none" stroke="#000000" points="105,-78 105,-130 227,-130 227,-78 105,-78"/>
</g>
<g id="clust6" class="cluster">
<title>cluster_AppModule_bootstrap</title>
<polygon fill="none" stroke="#000000" points="104,-208 104,-260 228,-260 228,-208 104,-208"/>
</g>
<g id="clust8" class="cluster">
<title>cluster_NeoLoaderModule</title>
<polygon fill="none" stroke="#000000" stroke-dasharray="1,5" points="244,-70 244,-268 400,-268 400,-70 244,-70"/>
</g>
<g id="clust9" class="cluster">
<title>cluster_NeoLoaderModule_declarations</title>
<polygon fill="none" stroke="#000000" points="254,-78 254,-130 390,-130 390,-78 254,-78"/>
</g>
<g id="clust12" class="cluster">
<title>cluster_NeoLoaderModule_exports</title>
<polygon fill="none" stroke="#000000" points="252,-208 252,-260 392,-260 392,-208 252,-208"/>
</g>
<!-- AppComponent -->
<g id="node1" class="node">
<title>AppComponent</title>
<polygon fill="#ffffb3" stroke="#000000" points="218.9399,-122 113.0601,-122 113.0601,-86 218.9399,-86 218.9399,-122"/>
<text text-anchor="middle" x="166" y="-99.8" font-family="Times,serif" font-size="14.00" fill="#000000">AppComponent</text>
</g>
<!-- AppModule -->
<g id="node2" class="node">
<title>AppModule</title>
<polygon fill="#8dd3c7" stroke="#000000" points="207.6571,-187 204.6571,-191 183.6571,-191 180.6571,-187 124.3429,-187 124.3429,-151 207.6571,-151 207.6571,-187"/>
<text text-anchor="middle" x="166" y="-164.8" font-family="Times,serif" font-size="14.00" fill="#000000">AppModule</text>
</g>
<!-- AppComponent&#45;&gt;AppModule -->
<g id="edge1" class="edge">
<title>AppComponent&#45;&gt;AppModule</title>
<path fill="none" stroke="#000000" d="M166,-122.1061C166,-122.1061 166,-140.991 166,-140.991"/>
<polygon fill="#000000" stroke="#000000" points="162.5001,-140.9909 166,-150.991 169.5001,-140.991 162.5001,-140.9909"/>
</g>
<!-- AppComponent  -->
<g id="node3" class="node">
<title>AppComponent </title>
<polygon fill="#80b1d3" stroke="#000000" points="220.439,-252 111.561,-252 111.561,-216 220.439,-216 220.439,-252"/>
<text text-anchor="middle" x="166" y="-229.8" font-family="Times,serif" font-size="14.00" fill="#000000">AppComponent </text>
</g>
<!-- AppModule&#45;&gt;AppComponent  -->
<g id="edge2" class="edge">
<title>AppModule&#45;&gt;AppComponent </title>
<path fill="none" stroke="#000000" stroke-dasharray="1,5" d="M166,-187.1061C166,-187.1061 166,-205.991 166,-205.991"/>
<polygon fill="#000000" stroke="#000000" points="162.5001,-205.9909 166,-215.991 169.5001,-205.991 162.5001,-205.9909"/>
</g>
<!-- LoaderComponent -->
<g id="node4" class="node">
<title>LoaderComponent</title>
<polygon fill="#ffffb3" stroke="#000000" points="382.4748,-122 261.5252,-122 261.5252,-86 382.4748,-86 382.4748,-122"/>
<text text-anchor="middle" x="322" y="-99.8" font-family="Times,serif" font-size="14.00" fill="#000000">LoaderComponent</text>
</g>
<!-- NeoLoaderModule -->
<g id="node5" class="node">
<title>NeoLoaderModule</title>
<polygon fill="#8dd3c7" stroke="#000000" points="383.0144,-187 380.0144,-191 359.0144,-191 356.0144,-187 260.9856,-187 260.9856,-151 383.0144,-151 383.0144,-187"/>
<text text-anchor="middle" x="322" y="-164.8" font-family="Times,serif" font-size="14.00" fill="#000000">NeoLoaderModule</text>
</g>
<!-- LoaderComponent&#45;&gt;NeoLoaderModule -->
<g id="edge3" class="edge">
<title>LoaderComponent&#45;&gt;NeoLoaderModule</title>
<path fill="none" stroke="#000000" d="M322,-122.1061C322,-122.1061 322,-140.991 322,-140.991"/>
<polygon fill="#000000" stroke="#000000" points="318.5001,-140.9909 322,-150.991 325.5001,-140.991 318.5001,-140.9909"/>
</g>
<!-- LoaderComponent  -->
<g id="node6" class="node">
<title>LoaderComponent </title>
<polygon fill="#fb8072" stroke="#000000" points="384.4757,-252 259.5243,-252 259.5243,-216 384.4757,-216 384.4757,-252"/>
<text text-anchor="middle" x="322" y="-229.8" font-family="Times,serif" font-size="14.00" fill="#000000">LoaderComponent </text>
</g>
<!-- NeoLoaderModule&#45;&gt;LoaderComponent  -->
<g id="edge4" class="edge">
<title>NeoLoaderModule&#45;&gt;LoaderComponent </title>
<path fill="none" stroke="#000000" stroke-dasharray="5,2" d="M322,-187.1061C322,-187.1061 322,-205.991 322,-205.991"/>
<polygon fill="#000000" stroke="#000000" points="318.5001,-205.9909 322,-215.991 325.5001,-205.991 318.5001,-205.9909"/>
</g>
</g>
</svg>
